<svg width="200" height="64" xmlns="http://www.w3.org/2000/svg">
 <defs>
  <style>.cls-1{fill:#231f20;}.cls-2{fill:#002782;}.cls-3{fill:#2f71ff;}.cls-4{fill:#3fe2f8;}</style>
 </defs>
 <title>logo</title>
 <g>
  <title>background</title>
  <rect fill="none" id="canvas_background" height="66" width="202" y="-1" x="-1"/>
 </g>
 <g>
  <title>Layer 1</title>
  <defs>
   <style>.a{fill:#e6e6e6;}.b{fill:#fff;}.c{fill:#ea212e;}.d{fill:url(#a);}.e{fill:#333;}</style>
  </defs>
  <g stroke="null" id="svg_20">
   <g stroke="null" transform="matrix(0.4873627515070875,0,0,0.4983628524314259,-252.57590437885455,-108.75180227232676) " id="svg_14">
    <path stroke="null" id="svg_15" d="m660.23591,258.80347a2.776,2.776 0 0 0 -2,-2.3l-38.3,-13a3.745,3.745 0 0 0 -2.1,0l-38.4,13a2.8,2.8 0 0 0 -2,2.3c-2.7,26.1 1.7,45.9 13.5,59.1c12.1,13.2 27.2,14.3 27.9,14.3l0.4,0a43.474,43.474 0 0 0 27.8,-14.3c11.7,-13.2 16.1,-33.1 13.2,-59.1z" class="a"/>
    <path stroke="null" id="svg_16" d="m661.33591,249.50347a2.908,2.908 0 0 0 -2,-2.5l-39.1,-14.2a3.745,3.745 0 0 0 -2.1,0l-39.2,14.2a2.936,2.936 0 0 0 -2,2.5c-3,28.5 1.5,50 13.6,64.2c12.3,14.5 27.7,15.7 28.4,15.7l0.4,0c0.6,0 16.1,-1.1 28.4,-15.6c12,-14.3 16.6,-36 13.6,-64.3z" class="b"/>
    <path stroke="null" id="svg_17" d="m656.33591,252.60347a2.627,2.627 0 0 0 -1.7,-2.2l-34.9,-12.6a2.775,2.775 0 0 0 -1.8,0l-34.8,12.6a2.627,2.627 0 0 0 -1.7,2.2c-2.7,25.3 1.3,44.4 12,57.1c10.9,12.9 24.7,13.9 25.2,13.9l0.4,0c0.5,0 14.3,-1 25.2,-13.8c10.7,-12.8 14.7,-32 12.1,-57.2zm-51,61.8c-0.5,-0.3 -0.8,-0.5 -1.3,-0.8c9.3,-2 16.9,-5.9 23.8,-10.1a85.659,85.659 0 0 1 -22.5,10.9zm44.7,-42.7a40.3,40.3 0 0 1 -4.5,7.5a57.536,57.536 0 0 1 -12.6,11.5a91.068,91.068 0 0 1 -15.6,8.8a52.065,52.065 0 0 1 -9.2,3.2c-3.1,0.8 -7.1,1.6 -10.7,0.8a9.612,9.612 0 0 1 -3.6,-1.3a39.861,39.861 0 0 1 -3.1,-6.2c0.1,-2.7 1.5,-5.1 2.7,-7.1a34.86,34.86 0 0 1 12.6,-11.5c5.1,-3.1 11,-5.7 19,-5.6a33.64,33.64 0 0 0 -14.9,6c-3.7,2.6 -8,6.4 -9.2,11.4c-0.8,3.5 0.8,5.7 3.2,6.7s6.1,0.9 9.1,0.5a37.586,37.586 0 0 0 15.3,-5.7a42.928,42.928 0 0 0 15.6,-15.5a25.718,25.718 0 0 0 2.8,-7.3c1.2,-7.2 -2.5,-11.1 -7.7,-12.5s-12.9,-0.3 -18.1,1.4a70.926,70.926 0 0 0 -26.4,15.3a76.866,76.866 0 0 0 -7.9,8.2c-0.2,-1.4 -0.4,-2.7 -0.5,-4.1a70.994,70.994 0 0 1 7.1,-6.3a75.351,75.351 0 0 1 16.9,-10.5a67.03,67.03 0 0 1 21.8,-6l3.5,-0.1c7.5,0.1 13.7,2.2 15.5,8.5c1,3.4 0,7.1 -1.1,9.9zm-22.7,0.8a33.788,33.788 0 0 0 4.5,0a8.084,8.084 0 0 0 1.5,0.1c0.5,-0.1 1.1,-0.8 1.6,-1.1c1.5,-1.2 3,-2.6 4.4,-3.7c-0.5,1.5 -1.5,3.1 -2.2,4.8c2,0.1 4.2,0.1 6.4,0.2c-2.5,1.1 -5.1,2 -7.8,2.9c-0.8,1.7 -1.6,3.5 -2.5,5.2c-0.9,-1 -1.6,-2.3 -2.5,-3.3l-7.5,2.8c2.1,-1.6 4.1,-3.2 6.2,-4.9c-0.6,-0.9 -1.4,-2 -2.1,-3z" class="c"/>
    <path stroke="null" id="svg_18" d="m653.53591,252.00347a2.389,2.389 0 0 0 -1.6,-2.1l-32,-11.9a2.208,2.208 0 0 0 -1.6,0l-32,11.9a2.468,2.468 0 0 0 -1.6,2.1c-2.4,23.9 1.3,42 11.2,53.9c10,12.2 22.6,13.1 23.2,13.1l0.4,0c0.5,0 13.2,-0.9 23.2,-13.1c9.5,-11.9 13.3,-30 10.8,-53.9z" class="d"/>
    <path stroke="null" id="svg_19" d="m675.83591,283.70347c0.1,2.7 2.2,3.9 4.7,3.9a10.242,10.242 0 0 0 4.2,-0.7l0.6,2.6a14.9,14.9 0 0 1 -5.3,0.9c-4.9,0 -7.8,-3 -7.8,-7.6c0,-4.2 2.5,-8.1 7.4,-8.1s6.5,4 6.5,7.4c0,0.7 -0.1,1.3 -0.1,1.6l-10.2,0zm6.7,-2.7c0,-1.4 -0.6,-3.7 -3.1,-3.7c-2.4,0 -3.4,2.1 -3.5,3.7l6.6,0zm14.3,-0.4l0,2.6l-7.9,0l0,-2.6l7.9,0zm3.2,-11.1a36.665,36.665 0 0 1 6.1,-0.4c3.9,0 6.6,0.8 8.5,2.4c2,1.6 3.3,4.1 3.3,7.7a10.8,10.8 0 0 1 -3.3,8.3c-2.1,1.9 -5.4,2.9 -9.5,2.9a35.419,35.419 0 0 1 -5.2,-0.3l0.1,-20.6zm3.8,17.8a12.786,12.786 0 0 0 2.1,0.1c5,0 7.9,-2.7 7.9,-8c0,-4.6 -2.6,-7.3 -7.4,-7.3a14.225,14.225 0 0 0 -2.6,0.2l0,15zm19.9,-3.6c0.1,2.7 2.2,3.9 4.7,3.9a10.242,10.242 0 0 0 4.2,-0.7l0.6,2.6a14.9,14.9 0 0 1 -5.3,0.9c-4.9,0 -7.8,-3 -7.8,-7.6c0,-4.2 2.5,-8.1 7.4,-8.1s6.5,4 6.5,7.4c0,0.7 -0.1,1.3 -0.1,1.6l-10.2,0zm6.6,-2.7c0,-1.4 -0.6,-3.7 -3.1,-3.7c-2.4,0 -3.4,2.1 -3.5,3.7l6.6,0zm9,-5.9l2.5,7.7c0.4,1.3 0.7,2.5 1,3.8l0.1,0c0.3,-1.2 0.6,-2.4 1,-3.8l2.4,-7.7l4,0l-5.8,15.1l-3.8,0l-5.6,-15.1l4.2,0zm13.4,-7l3.8,0l0,22l-3.8,0l0,-22zm10.6,15.6c0.1,2.7 2.2,3.9 4.7,3.9a10.242,10.242 0 0 0 4.2,-0.7l0.6,2.6a14.9,14.9 0 0 1 -5.3,0.9c-4.9,0 -7.8,-3 -7.8,-7.6c0,-4.2 2.5,-8.1 7.4,-8.1s6.5,4 6.5,7.4c0,0.7 -0.1,1.3 -0.1,1.6l-10.2,0zm6.7,-2.7c0,-1.4 -0.6,-3.7 -3.1,-3.7c-2.4,0 -3.4,2.1 -3.5,3.7l6.6,0zm11,-10.3l0,4.3l3.6,0l0,2.9l-3.6,0l0,6.7c0,1.8 0.5,2.8 2,2.8a5.418,5.418 0 0 0 1.5,-0.2l0.1,2.9a9.271,9.271 0 0 1 -2.8,0.4a4.716,4.716 0 0 1 -3.3,-1.2a6.022,6.022 0 0 1 -1.2,-4.2l0,-7.1l-2.2,0l0,-2.9l2.2,0l0,-3.4l3.7,-1zm13.1,-1.4l3.8,0l0,9.6l0.1,0c0.5,-0.8 1,-1.6 1.5,-2.3l5.5,-7.4l4.7,0l-7.2,8.9l7.7,12l-4.5,0l-5.9,-9.6l-1.9,2.2l0,7.4l-3.8,0l0,-20.8zm26.6,20.9l-0.2,-1.7l-0.1,0a5.5,5.5 0 0 1 -4.5,2a4.467,4.467 0 0 1 -4.7,-4.5c0,-3.8 3.4,-5.7 9,-5.7l0,-0.2c0,-1 -0.4,-2.6 -3.1,-2.6a8.906,8.906 0 0 0 -4.1,1.1l-0.7,-2.5a10.82,10.82 0 0 1 5.5,-1.3c4.8,0 6.2,3.1 6.2,6.4l0,5.5a33.634,33.634 0 0 0 0.2,3.6l-3.5,-0.1zm-0.5,-7.4c-2.7,-0.1 -5.3,0.5 -5.3,2.8a2.045,2.045 0 0 0 2.2,2.2a3.2,3.2 0 0 0 3,-2.1a2.485,2.485 0 0 0 0.1,-0.8l0,-2.1zm7.8,-2.7c0,-2 -0.1,-3.6 -0.1,-5l3.4,0l0.2,2.3l0.1,0a5.931,5.931 0 0 1 5.2,-2.7c3.5,0 6.4,3 6.4,7.7c0,5.5 -3.4,8.1 -6.9,8.1a5.1,5.1 0 0 1 -4.3,-2l-0.1,0l0,7.8l-3.8,0l0,-16.2l-0.1,0zm3.8,3.7a4.1,4.1 0 0 0 0.1,1.1a3.435,3.435 0 0 0 3.4,2.7c2.4,0 3.8,-2 3.8,-5c0,-2.7 -1.3,-4.8 -3.8,-4.8a3.5,3.5 0 0 0 -3.4,2.8a3.553,3.553 0 0 0 -0.2,1l0,2.2l0.1,0zm14.4,6.4l0,-15.1l3.8,0l0,15.1l-3.8,0zm7.7,-3.5a8.952,8.952 0 0 0 3.9,1.1c1.7,0 2.4,-0.7 2.4,-1.7s-0.6,-1.6 -2.5,-2.2c-2.9,-1 -4.2,-2.6 -4.2,-4.4c0,-2.7 2.2,-4.7 5.7,-4.7a8.447,8.447 0 0 1 4,0.9l-0.7,2.7a6.757,6.757 0 0 0 -3.2,-0.9c-1.4,0 -2.1,0.7 -2.1,1.6c0,1 0.7,1.4 2.6,2.1c2.7,1 4,2.4 4,4.6c0,2.7 -2.1,4.7 -6.1,4.7a8.94,8.94 0 0 1 -4.6,-1.1l0.8,-2.7zm13.1,3.5l0,-15.1l3.8,0l0,15.1l-3.8,0z" class="e"/>
   </g>
  </g>
 </g>
</svg>